<?xml version="1.0" ?><svg viewBox="0 0 48 48" xmlns="http://www.w3.org/2000/svg" xmlns:xlink="http://www.w3.org/1999/xlink"><defs><style>.cls-1{fill:#99543b;}.cls-2{fill:#fdcf85;}.cls-3{fill:#edbd77;}.cls-4{fill:url(#linear-gradient);}.cls-5{fill:url(#linear-gradient-2);}.cls-6{fill:url(#linear-gradient-3);}</style><linearGradient gradientUnits="userSpaceOnUse" id="linear-gradient" x1="23.98" x2="23.98" y1="27" y2="40.27"><stop offset="0" stop-color="#fff"/><stop offset="0.3" stop-color="#fbfbfb"/><stop offset="1" stop-color="#f5f5f5"/></linearGradient><linearGradient gradientUnits="userSpaceOnUse" id="linear-gradient-2" x1="35.65" x2="35.65" y1="30.9" y2="41.63"><stop offset="0" stop-color="#a9db3b"/><stop offset="1" stop-color="#92b93b"/></linearGradient><linearGradient id="linear-gradient-3" x1="12.27" x2="12.27" xlink:href="#linear-gradient-2" y1="31.3" y2="41.6"/></defs><title/><g id="icons"><g data-name="Layer 3" id="Layer_3"><path class="cls-1" d="M31.92,12C30.16,7.21,27.76,5.6,23.4,5.84s-8,2.28-9.55,8.15c-1.57,6.14,1.31,12.47-2.93,18.95-.66,1,24,0,24,0C32.07,26.63,35.93,22.77,31.92,12Z"/><path class="cls-2" d="M34.83,31.58c-4-.74-6.71-2.68-6.71-4.39s.11-6.59.11-6.59l-4.9-.09h0l-4.89.09a61.13,61.13,0,0,1,1,6.72c0,1.71-1.77,3.79-5.6,4.26-3.79.78-4.95,4.49-5.1,6.81l14.67-.8H39.4C39.24,35.27,37.86,33.16,34.83,31.58Z"/><path class="cls-3" d="M23.44,29.82a7.18,7.18,0,0,0,4.71-2.3,1.84,1.84,0,0,1,0-.33c0-1.7.11-6.59.11-6.59l-4.9-.09h0l-4.89.09a61.13,61.13,0,0,1,1,6.72,2.88,2.88,0,0,1-.1.7A7,7,0,0,0,23.44,29.82Z"/><path class="cls-4" d="M36.93,32.4a68.83,68.83,0,0,0-6.7-2.56h0s-1.88,5.71-6.16,5.71-5.83-5.88-5.83-5.88c-1.17,1.17-6.68,2.64-6.68,2.64-1.35,1-2.69,3.08-3,7C10.13,40.08,14,40.66,19,40.9H29c4.95-.24,8.86-.82,10.44-1.56C39.08,37.16,38.3,33.35,36.93,32.4Z"/><path class="cls-5" d="M40.19,38.61a.14.14,0,0,0,0-.06c-.77-2.22-2-5.31-3.24-6.15a38.75,38.75,0,0,0-5.83-2.26V40.77C36.48,40.38,40.19,39.56,40.19,38.61Z"/><path class="cls-6" d="M16.73,40.76V30.56A34.17,34.17,0,0,0,10.9,32.4c-1.25.87-2.42,4.13-3.09,6.35C8.15,39.63,11.68,40.39,16.73,40.76Z"/><path class="cls-2" d="M31.35,15.18v-.09c-.28.15-.73.62-.85,2.13-.43-2.2-1.56-5.27-2.11-5.56-1.56,2.91-8.33,7.48-12.49,9,1.27,5.48,5.23,7.87,7.53,7.87s6.34-2.41,7.5-8.17c.78-.12,1.4-1.25,1.4-2.65A3.08,3.08,0,0,0,31.35,15.18Z"/></g></g></svg>